<?xml version="1.0" encoding="utf-8"?>
<!-- Generator: Adobe Illustrator 20.1.0, SVG Export Plug-In . SVG Version: 6.00 Build 0)  -->
<svg version="1.1" id="Layer_1" xmlns="http://www.w3.org/2000/svg" xmlns:xlink="http://www.w3.org/1999/xlink" x="0px" y="0px"
	 viewBox="0 0 1474 515.9" style="enable-background:new 0 0 1474 515.9;" xml:space="preserve">
<style type="text/css">
	.st0{fill:#082E51;}
	.st1{fill:none;stroke:#082E51;stroke-width:4;stroke-linecap:round;stroke-linejoin:round;stroke-miterlimit:10;}
	.st2{fill:none;stroke:#007BFF;stroke-width:4;stroke-linecap:round;stroke-linejoin:round;stroke-miterlimit:10;}
	.st3{fill:#007BFF;}
	.st4{opacity:0.12;fill:#007BFF;enable-background:new    ;}
	.st5{fill:#FFFFFF;}
</style>
<g>
	<path class="st0" d="M873,301.7l2.3,6.8h0.6l1.6-11.3h2.2l-2,13.8h-3.5l-2.4-7h-0.6l-2.4,7h-3.6l-2-13.8h2.2l1.6,11.3h0.6l2.3-6.8
		H873z"/>
	<path class="st0" d="M891.9,309.5h-0.6c-0.8,1.1-2.3,1.8-4.3,1.8c-3.2,0-4.9-2.1-4.9-4.5c0-2.2,1.4-4.6,5.3-4.6h4.5v-0.5
		c0-1.7-1-2.9-3.4-2.9c-2,0-3.1,0.8-3.2,2h-2.3c0.2-2.5,2.4-4,5.5-4c3.5,0,5.7,1.7,5.7,4.7v9.4h-2.2V309.5z M891.8,305.3v-1.3h-4.1
		c-2.3,0-3.3,1-3.3,2.6c0,1.6,1.1,2.5,3.2,2.5C889.9,309.2,891.8,307.5,891.8,305.3z"/>
	<path class="st0" d="M898.3,293.6v-2.5h2.5v2.5H898.3z M900.7,310.9h-2.3v-13.8h2.3V310.9z"/>
	<path class="st0" d="M911.9,297.1v2h-3.5v7.6c0,1.4,0.6,2.1,2.5,2.1h1v2.1h-1.1c-3,0-4.7-0.9-4.7-3.8v-7.9h-2.4v-2h2.4V293h2.3v4.1
		H911.9z"/>
	<path class="st0" d="M915.7,293.6v-2.5h2.5v2.5H915.7z M918.1,310.9h-2.3v-13.8h2.3V310.9z"/>
	<path class="st0" d="M932.6,310.9v-8.2c0-2.5-1.2-3.8-3.5-3.8c-2.5,0-4.1,2.2-4.1,4.6v7.4h-2.3v-13.8h2.2v1.5h0.6
		c0.8-1.1,2.3-1.8,4.1-1.8c3.4,0,5.2,2.1,5.2,5.4v8.7H932.6z"/>
	<path class="st0" d="M951.4,297.1v13.1c0,3.8-2.4,6.3-6.4,6.3c-3.5,0-5.8-1.5-6.2-4.2h2.3c0.4,1.6,1.8,2.2,3.9,2.2
		c2.8,0,4.1-1.7,4.1-4.5V309h-0.6c-0.7,1-2,1.8-4.1,1.8c-3.8,0-6.1-3-6.1-7c0-4,2.3-7,6.1-7c2.2,0,3.5,0.9,4.2,1.8h0.6v-1.5H951.4z
		 M949.2,303.8c0-2.6-1.4-5-4.3-5c-2.7,0-4.2,2-4.2,5c0,3,1.5,5,4.2,5C947.8,308.8,949.2,306.5,949.2,303.8z"/>
	<path class="st0" d="M966.7,299.2v11.7h-2.3v-11.7H962v-2h2.4v-1.6c0-3.1,1.7-4.5,4.7-4.5h1.3v2h-1.3c-1.8,0-2.4,1.1-2.4,2.6v1.5
		h3.7v2H966.7z"/>
	<path class="st0" d="M985.8,304c0,4.1-2.5,7.2-6.8,7.2c-4.3,0-6.8-3.2-6.8-7.2c0-4.1,2.5-7.2,6.8-7.2
		C983.4,296.8,985.8,300,985.8,304z M983.5,304c0-2.7-1.4-5.2-4.4-5.2c-3.1,0-4.4,2.5-4.4,5.2s1.4,5.2,4.4,5.2
		C982.1,309.2,983.5,306.7,983.5,304z"/>
	<path class="st0" d="M997.3,299.3h-1.1c-2.7,0-4.4,1.7-4.4,4.7v6.9h-2.3v-13.8h2.2v1.6h0.6c0.7-0.8,2-1.6,4-1.6h1V299.3z"/>
	<path class="st0" d="M862.9,333.6l1.6,0.2c2.4,0.4,3.9,1.6,3.9,4.1c0,2.3-1.9,4.3-5.6,4.3c-3.9,0-5.8-1.7-6.1-4.3h2.3
		c0.2,1.6,1.6,2.3,3.7,2.3c2.1,0,3.4-0.7,3.4-2.2c0-1.2-0.8-1.9-2.5-2.2l-3.1-0.5c-2-0.4-3.3-1.4-3.3-3.5c0-2.3,1.7-4.1,5.4-4.1
		c3.2,0,5.1,1.5,5.4,3.9h-2.3c-0.2-1.3-1.5-1.9-3.2-1.9c-1.8,0-3,0.7-3,1.8c0,1.1,0.7,1.5,2.1,1.7L862.9,333.6z"/>
	<path class="st0" d="M884.5,335c0,4.1-2.5,7.2-6.8,7.2c-4.3,0-6.8-3.2-6.8-7.2c0-4.1,2.5-7.2,6.8-7.2
		C882,327.8,884.5,331,884.5,335z M882.1,335c0-2.7-1.4-5.2-4.4-5.2c-3.1,0-4.4,2.5-4.4,5.2s1.4,5.2,4.4,5.2
		C880.7,340.2,882.1,337.7,882.1,335z"/>
	<path class="st0" d="M907,333v8.9h-2.3v-8.6c0-2.3-0.9-3.4-2.6-3.4c-2.2,0-3.4,1.7-3.4,4v8h-2.3v-8.6c0-2.3-0.9-3.4-2.6-3.4
		c-2.3,0-3.4,1.9-3.4,4.4v7.6h-2.3v-13.8h2.2v1.3h0.6c0.7-1.1,1.7-1.7,3.5-1.7c1.7,0,2.9,0.6,3.6,1.8h0.6c0.8-1.2,2.2-1.8,3.9-1.8
		C905.7,327.8,907,329.8,907,333z"/>
	<path class="st0" d="M923.2,335h-10.5c0.1,3.3,1.6,5.2,4.4,5.2c1.9,0,3.1-0.8,3.5-2.1h2.3c-0.4,2.3-2.4,4.1-5.8,4.1
		c-4.3,0-6.7-3.1-6.7-7.4s2.5-7.1,6.6-7.1c4.1,0,6.1,3,6.1,6.4V335z M912.9,333.1h7.9c-0.1-1.7-1.5-3.2-3.8-3.2
		C914.5,329.8,913.2,331.3,912.9,333.1z"/>
	<path class="st0" d="M946.3,335h-10.5c0.1,3.3,1.6,5.2,4.4,5.2c1.9,0,3.1-0.8,3.5-2.1h2.3c-0.4,2.3-2.4,4.1-5.8,4.1
		c-4.3,0-6.7-3.1-6.7-7.4s2.5-7.1,6.6-7.1c4.1,0,6.1,3,6.1,6.4V335z M936,333.1h7.9c-0.1-1.7-1.5-3.2-3.8-3.2
		C937.6,329.8,936.3,331.3,936,333.1z"/>
	<path class="st0" d="M948.3,328.1h2.4l3.8,11.6h1.1l3.7-11.6h2.4l-4.6,13.8h-4.3L948.3,328.1z"/>
	<path class="st0" d="M976.3,335h-10.5c0.1,3.3,1.6,5.2,4.4,5.2c1.9,0,3.1-0.8,3.5-2.1h2.3c-0.4,2.3-2.4,4.1-5.8,4.1
		c-4.3,0-6.7-3.1-6.7-7.4s2.5-7.1,6.6-7.1c4.1,0,6.1,3,6.1,6.4V335z M966,333.1h7.9c-0.1-1.7-1.5-3.2-3.8-3.2
		C967.7,329.8,966.3,331.3,966,333.1z"/>
	<path class="st0" d="M989.8,341.9v-8.2c0-2.5-1.2-3.8-3.5-3.8c-2.5,0-4.1,2.2-4.1,4.6v7.4h-2.3v-13.8h2.2v1.5h0.6
		c0.8-1.1,2.3-1.8,4.1-1.8c3.4,0,5.2,2.1,5.2,5.4v8.7H989.8z"/>
	<path class="st0" d="M1003.1,328.1v2h-3.5v7.6c0,1.4,0.6,2.1,2.5,2.1h1v2.1h-1.1c-3,0-4.7-0.9-4.7-3.8v-7.9h-2.4v-2h2.4V324h2.3
		v4.1H1003.1z"/>
</g>
<g>
	<path class="st0" d="M486.5,309.5h-0.6c-0.8,1.1-2.3,1.8-4.3,1.8c-3.2,0-4.9-2.1-4.9-4.5c0-2.2,1.4-4.6,5.3-4.6h4.5v-0.5
		c0-1.7-1-2.9-3.4-2.9c-2,0-3.1,0.8-3.2,2h-2.3c0.2-2.5,2.4-4,5.5-4c3.5,0,5.7,1.7,5.7,4.7v9.4h-2.2V309.5z M486.5,305.3v-1.3h-4.1
		c-2.3,0-3.3,1-3.3,2.6c0,1.6,1.1,2.5,3.2,2.5C484.5,309.2,486.5,307.5,486.5,305.3z"/>
	<path class="st0" d="M502.9,310.9v-8.2c0-2.5-1.2-3.8-3.5-3.8c-2.5,0-4.1,2.2-4.1,4.6v7.4H493v-13.8h2.2v1.5h0.6
		c0.8-1.1,2.3-1.8,4.1-1.8c3.4,0,5.2,2.1,5.2,5.4v8.7H502.9z"/>
	<path class="st0" d="M529,304h-10.5c0.1,3.3,1.6,5.2,4.4,5.2c1.9,0,3.1-0.8,3.5-2.1h2.3c-0.4,2.3-2.4,4.1-5.8,4.1
		c-4.3,0-6.7-3.1-6.7-7.4s2.5-7.1,6.6-7.1c4.1,0,6.1,3,6.1,6.4V304z M518.6,302.1h7.9c-0.1-1.7-1.5-3.2-3.8-3.2
		C520.3,298.8,518.9,300.3,518.6,302.1z"/>
	<path class="st0" d="M530.9,297.1h2.4l3.8,11.6h1.1l3.7-11.6h2.4l-4.6,13.8h-4.3L530.9,297.1z"/>
	<path class="st0" d="M559,304h-10.5c0.1,3.3,1.6,5.2,4.4,5.2c1.9,0,3.1-0.8,3.5-2.1h2.3c-0.4,2.3-2.4,4.1-5.8,4.1
		c-4.3,0-6.7-3.1-6.7-7.4s2.5-7.1,6.6-7.1c4.1,0,6.1,3,6.1,6.4V304z M548.6,302.1h7.9c-0.1-1.7-1.5-3.2-3.8-3.2
		C550.3,298.8,548.9,300.3,548.6,302.1z"/>
	<path class="st0" d="M572.5,310.9v-8.2c0-2.5-1.2-3.8-3.5-3.8c-2.5,0-4.1,2.2-4.1,4.6v7.4h-2.3v-13.8h2.2v1.5h0.6
		c0.8-1.1,2.3-1.8,4.1-1.8c3.4,0,5.2,2.1,5.2,5.4v8.7H572.5z"/>
	<path class="st0" d="M585.7,297.1v2h-3.5v7.6c0,1.4,0.6,2.1,2.5,2.1h1v2.1h-1.1c-3,0-4.7-0.9-4.7-3.8v-7.9h-2.4v-2h2.4V293h2.3v4.1
		H585.7z"/>
	<path class="st0" d="M463.9,341.9v-8.2c0-2.5-1.2-3.8-3.5-3.8c-2.5,0-4.1,2.2-4.1,4.6v7.4h-2.3v-19.8h2.3v7.6h0.6
		c0.7-1.1,2.2-1.8,4.1-1.8c3.4,0,5.2,2.1,5.2,5.4v8.7H463.9z"/>
	<path class="st0" d="M479.2,340.5h-0.6c-0.8,1.1-2.3,1.8-4.3,1.8c-3.2,0-4.9-2.1-4.9-4.5c0-2.2,1.4-4.6,5.3-4.6h4.5v-0.5
		c0-1.7-1-2.9-3.4-2.9c-2,0-3.1,0.8-3.2,2h-2.3c0.2-2.5,2.4-4,5.5-4c3.5,0,5.7,1.7,5.7,4.7v9.4h-2.2V340.5z M479.1,336.3v-1.3H475
		c-2.3,0-3.3,1-3.3,2.6c0,1.6,1.1,2.5,3.2,2.5C477.2,340.2,479.1,338.5,479.1,336.3z"/>
	<path class="st0" d="M490.7,333.6l1.6,0.2c2.4,0.4,3.9,1.6,3.9,4.1c0,2.3-1.9,4.3-5.6,4.3c-3.9,0-5.8-1.7-6.1-4.3h2.3
		c0.2,1.6,1.6,2.3,3.7,2.3c2.1,0,3.4-0.7,3.4-2.2c0-1.2-0.8-1.9-2.5-2.2l-3.1-0.5c-2-0.4-3.3-1.4-3.3-3.5c0-2.3,1.7-4.1,5.4-4.1
		c3.2,0,5.1,1.5,5.4,3.9h-2.3c-0.2-1.3-1.5-1.9-3.2-1.9c-1.8,0-3,0.7-3,1.8c0,1.1,0.7,1.5,2.1,1.7L490.7,333.6z"/>
	<path class="st0" d="M519.9,335c0,4.1-2.5,7.2-6.8,7.2c-4.3,0-6.8-3.2-6.8-7.2c0-4.1,2.5-7.2,6.8-7.2
		C517.4,327.8,519.9,331,519.9,335z M517.6,335c0-2.7-1.4-5.2-4.4-5.2c-3.1,0-4.4,2.5-4.4,5.2s1.4,5.2,4.4,5.2
		C516.2,340.2,517.6,337.7,517.6,335z"/>
	<path class="st0" d="M535.2,337.8c-0.5,2.7-2.6,4.5-5.8,4.5c-4.3,0-6.7-3.2-6.7-7.2c0-4.1,2.4-7.2,6.7-7.2c3.3,0,5.2,1.8,5.7,4.3
		h-2.3c-0.4-1.4-1.5-2.3-3.4-2.3c-3.1,0-4.4,2.4-4.4,5.2c0,2.8,1.3,5.3,4.4,5.3c2,0,3.1-1,3.5-2.5H535.2z"/>
	<path class="st0" d="M550.2,337.8c-0.5,2.7-2.6,4.5-5.8,4.5c-4.3,0-6.7-3.2-6.7-7.2c0-4.1,2.4-7.2,6.7-7.2c3.3,0,5.2,1.8,5.7,4.3
		h-2.3c-0.4-1.4-1.5-2.3-3.4-2.3c-3.1,0-4.4,2.4-4.4,5.2c0,2.8,1.3,5.3,4.4,5.3c2,0,3.1-1,3.5-2.5H550.2z"/>
	<path class="st0" d="M555.8,328.1v8.2c0,2.5,1.2,3.8,3.5,3.8c2.4,0,4.1-2.1,4.1-4.6v-7.4h2.3v13.8h-2.2v-1.5h-0.6
		c-0.8,1.1-2.3,1.8-4.1,1.8c-3.4,0-5.2-2.1-5.2-5.4v-8.7H555.8z"/>
	<path class="st0" d="M578,330.3h-1.1c-2.7,0-4.4,1.7-4.4,4.7v6.9h-2.3v-13.8h2.2v1.6h0.6c0.7-0.8,2-1.6,4-1.6h1V330.3z"/>
	<path class="st0" d="M593,335h-10.5c0.1,3.3,1.6,5.2,4.4,5.2c1.9,0,3.1-0.8,3.5-2.1h2.3c-0.4,2.3-2.4,4.1-5.8,4.1
		c-4.3,0-6.7-3.1-6.7-7.4s2.5-7.1,6.6-7.1c4.1,0,6.1,3,6.1,6.4V335z M582.6,333.1h7.9c-0.1-1.7-1.5-3.2-3.8-3.2
		C584.3,329.8,582.9,331.3,582.6,333.1z"/>
	<path class="st0" d="M608.9,322.1v19.8h-2.2v-1.5H606c-0.8,1-2.1,1.8-4.3,1.8c-3.8,0-6-3.2-6-7.2c0-4.1,2.2-7.2,6-7.2
		c2.2,0,3.4,0.8,4.2,1.8h0.6v-7.6H608.9z M606.6,335c0-2.7-1.3-5.2-4.3-5.2c-2.8,0-4.2,2.2-4.2,5.2s1.5,5.2,4.2,5.2
		C605.3,340.2,606.6,337.7,606.6,335z"/>
</g>
<ellipse class="st1" cx="146.5" cy="176.9" rx="121.5" ry="55.1"/>
<ellipse class="st2" cx="533" cy="176.9" rx="121.5" ry="64"/>
<ellipse class="st0" cx="727.2" cy="412.3" rx="121.5" ry="64"/>
<ellipse class="st3" cx="946.1" cy="176.9" rx="121.5" ry="64"/>
<ellipse class="st4" cx="1333.5" cy="176.9" rx="121.5" ry="64"/>
<g>
	<path pointer-events="none" class="st0" d="M1209.7,182.3l-26.7,13.5l6.5-13.3l-6.6-13.4L1209.7,182.3z"/>
	<line class="st1" x1="1069.5" y1="181.5" x2="1189.5" y2="182.5"/>
</g>
<g>
	<path pointer-events="none" class="st0" d="M409.2,176.8l-26.7,13.5L389,177l-6.6-13.4L409.2,176.8z"/>
	<line class="st1" x1="269" y1="176" x2="389" y2="177"/>
</g>
<g>
	<path pointer-events="none" class="st0" d="M863.4,129.6l-29.4,5.6l9.9-11l-2.6-14.7L863.4,129.6z"/>
	<path class="st1" d="M619.6,132c105.4-59.1,224.3-7.9,224.3-7.9"/>
</g>
<g>
	<path pointer-events="none" class="st0" d="M621.8,223.3l29.5-4.9l-10.2,10.7l2.3,14.8L621.8,223.3z"/>
	<path class="st1" d="M865.5,226.6c-106.7,56.7-224.4,2.6-224.4,2.6"/>
</g>
<g>
	<path pointer-events="none" class="st0" d="M534.8,240.9l3.9,29.7l-10.4-10.5l-14.8,1.8L534.8,240.9z"/>
	<path class="st1" d="M524.5,291.2c-1-19.2,3.8-31.2,3.8-31.2"/>
	<path class="st1" d="M605.7,412.3c-31-21.9-50.6-43.9-62.7-64"/>
</g>
<g>
	<path pointer-events="none" class="st0" d="M849,412.7l21.7-20.6l-2.4,14.6l10.2,10.9L849,412.7z"/>
	<path class="st1" d="M937.8,351.3c-23.1,48.9-69.5,55.4-69.5,55.4"/>
	<path class="st1" d="M946.1,240.9c3,17,4.4,32.3,4.4,46"/>
</g>
<g>
	<path class="st0" d="M666.5,27.7v19.8h-2.2v-1.5h-0.6c-0.8,1-2.1,1.8-4.3,1.8c-3.8,0-6-3.2-6-7.2c0-4.1,2.2-7.2,6-7.2
		c2.2,0,3.4,0.8,4.2,1.8h0.6v-7.6H666.5z M664.2,40.7c0-2.7-1.3-5.2-4.3-5.2c-2.8,0-4.2,2.2-4.2,5.2s1.5,5.2,4.2,5.2
		C663,45.9,664.2,43.4,664.2,40.7z"/>
	<path class="st0" d="M671,30.2v-2.5h2.5v2.5H671z M673.4,47.6H671V33.8h2.3V47.6z"/>
	<path class="st0" d="M683,39.2l1.6,0.2c2.4,0.4,3.9,1.6,3.9,4.1c0,2.3-1.9,4.3-5.6,4.3c-3.9,0-5.8-1.7-6.1-4.3h2.3
		c0.2,1.6,1.6,2.3,3.7,2.3c2.1,0,3.4-0.7,3.4-2.2c0-1.2-0.8-1.9-2.5-2.2l-3.1-0.5c-2-0.4-3.3-1.4-3.3-3.5c0-2.3,1.7-4.1,5.4-4.1
		c3.2,0,5.1,1.5,5.4,3.9h-2.3c-0.2-1.3-1.5-1.9-3.2-1.9c-1.8,0-3,0.7-3,1.8c0,1.1,0.7,1.5,2.1,1.7L683,39.2z"/>
	<path class="st0" d="M694.2,33.8v1.5h0.6c0.8-1,2.1-1.8,4.3-1.8c3.8,0,6,3.2,6,7.2c0,4.1-2.2,7.2-6,7.2c-2.2,0-3.5-0.8-4.2-1.8
		h-0.6V53h-2.3V33.8H694.2z M694.2,40.7c0,2.7,1.3,5.2,4.3,5.2c2.8,0,4.2-2.2,4.2-5.2s-1.5-5.2-4.2-5.2
		C695.5,35.5,694.2,38,694.2,40.7z"/>
	<path class="st0" d="M717.5,46.1h-0.6c-0.8,1.1-2.3,1.8-4.3,1.8c-3.2,0-4.9-2.1-4.9-4.5c0-2.2,1.4-4.6,5.3-4.6h4.5v-0.5
		c0-1.7-1-2.9-3.4-2.9c-2,0-3.1,0.8-3.2,2h-2.3c0.2-2.5,2.4-4,5.5-4c3.5,0,5.7,1.7,5.7,4.7v9.4h-2.2V46.1z M717.4,42v-1.3h-4.1
		c-2.3,0-3.3,1-3.3,2.6c0,1.6,1.1,2.5,3.2,2.5C715.5,45.9,717.4,44.2,717.4,42z"/>
	<path class="st0" d="M730.6,33.8v2h-3.5v7.6c0,1.4,0.6,2.1,2.5,2.1h1v2.1h-1.1c-3,0-4.7-0.9-4.7-3.8v-7.9h-2.4v-2h2.4v-4.1h2.3v4.1
		H730.6z"/>
	<path class="st0" d="M745.8,43.4c-0.5,2.7-2.6,4.5-5.8,4.5c-4.3,0-6.7-3.2-6.7-7.2c0-4.1,2.4-7.2,6.7-7.2c3.3,0,5.2,1.8,5.7,4.3
		h-2.3c-0.4-1.4-1.5-2.3-3.4-2.3c-3.1,0-4.4,2.4-4.4,5.2c0,2.8,1.3,5.3,4.4,5.3c2,0,3.1-1,3.5-2.5H745.8z"/>
	<path class="st0" d="M759.1,47.6v-8.2c0-2.5-1.2-3.8-3.5-3.8c-2.5,0-4.1,2.2-4.1,4.6v7.4h-2.3V27.7h2.3v7.6h0.6
		c0.7-1.1,2.2-1.8,4.1-1.8c3.4,0,5.2,2.1,5.2,5.4v8.7H759.1z"/>
	<path class="st0" d="M777.6,40.7h-10.5c0.1,3.3,1.6,5.2,4.4,5.2c1.9,0,3.1-0.8,3.5-2.1h2.3c-0.4,2.3-2.4,4.1-5.8,4.1
		c-4.3,0-6.7-3.1-6.7-7.4s2.5-7.1,6.6-7.1c4.1,0,6.1,3,6.1,6.4V40.7z M767.3,38.7h7.9c-0.1-1.7-1.5-3.2-3.8-3.2
		C769,35.5,767.6,37,767.3,38.7z"/>
	<path class="st0" d="M793.5,27.7v19.8h-2.2v-1.5h-0.6c-0.8,1-2.1,1.8-4.3,1.8c-3.8,0-6-3.2-6-7.2c0-4.1,2.2-7.2,6-7.2
		c2.2,0,3.4,0.8,4.2,1.8h0.6v-7.6H793.5z M791.3,40.7c0-2.7-1.3-5.2-4.3-5.2c-2.8,0-4.2,2.2-4.2,5.2s1.5,5.2,4.2,5.2
		C790,45.9,791.3,43.4,791.3,40.7z"/>
	<path class="st0" d="M656,71.7c0,4.1-2.2,7.2-6,7.2c-2.2,0-3.5-0.9-4.3-1.8h-0.6v1.5h-2.2V58.7h2.3v7.6h0.6c0.7-1,2-1.8,4.2-1.8
		C653.7,64.5,656,67.5,656,71.7z M653.7,71.7c0-3.1-1.5-5.2-4.2-5.2c-3.1,0-4.3,2.5-4.3,5.2s1.3,5.2,4.3,5.2
		C652.2,76.9,653.7,74.7,653.7,71.7z"/>
	<path class="st0" d="M661,84l2.8-6.7l-5.9-12.5h2.5l4.2,9.1h0.7l3.8-9.1h2.4L663.3,84H661z"/>
	<path class="st0" d="M687,70.2l1.6,0.2c2.4,0.4,3.9,1.6,3.9,4.1c0,2.3-1.9,4.3-5.6,4.3c-3.9,0-5.8-1.7-6.1-4.3h2.3
		c0.2,1.6,1.6,2.3,3.7,2.3c2.1,0,3.4-0.7,3.4-2.2c0-1.2-0.8-1.9-2.5-2.2l-3.1-0.5c-2-0.4-3.3-1.4-3.3-3.5c0-2.3,1.7-4.1,5.4-4.1
		c3.2,0,5.1,1.5,5.4,3.9h-2.3c-0.2-1.3-1.5-1.9-3.2-1.9c-1.8,0-3,0.7-3,1.8c0,1.1,0.7,1.5,2.1,1.7L687,70.2z"/>
	<path class="st0" d="M707.5,74.4c-0.5,2.7-2.6,4.5-5.8,4.5c-4.3,0-6.7-3.2-6.7-7.2c0-4.1,2.4-7.2,6.7-7.2c3.3,0,5.2,1.8,5.7,4.3
		h-2.3c-0.4-1.4-1.5-2.3-3.4-2.3c-3.1,0-4.4,2.4-4.4,5.2c0,2.8,1.3,5.3,4.4,5.3c2,0,3.1-1,3.5-2.5H707.5z"/>
	<path class="st0" d="M720.9,78.6v-8.2c0-2.5-1.2-3.8-3.5-3.8c-2.5,0-4.1,2.2-4.1,4.6v7.4H711V58.7h2.3v7.6h0.6
		c0.7-1.1,2.2-1.8,4.1-1.8c3.4,0,5.2,2.1,5.2,5.4v8.7H720.9z"/>
	<path class="st0" d="M739.4,71.7h-10.5c0.1,3.3,1.6,5.2,4.4,5.2c1.9,0,3.1-0.8,3.5-2.1h2.3c-0.4,2.3-2.4,4.1-5.8,4.1
		c-4.3,0-6.7-3.1-6.7-7.4s2.5-7.1,6.6-7.1c4.1,0,6.1,3,6.1,6.4V71.7z M729,69.7h7.9c-0.1-1.7-1.5-3.2-3.8-3.2
		C730.7,66.5,729.3,68,729,69.7z"/>
	<path class="st0" d="M755.3,58.7v19.8H753v-1.5h-0.6c-0.8,1-2.1,1.8-4.3,1.8c-3.8,0-6-3.2-6-7.2c0-4.1,2.2-7.2,6-7.2
		c2.2,0,3.4,0.8,4.2,1.8h0.6v-7.6H755.3z M753,71.7c0-2.7-1.3-5.2-4.3-5.2c-2.8,0-4.2,2.2-4.2,5.2s1.5,5.2,4.2,5.2
		C751.7,76.9,753,74.4,753,71.7z"/>
	<path class="st0" d="M761.8,64.8v8.2c0,2.5,1.2,3.8,3.5,3.8c2.4,0,4.1-2.1,4.1-4.6v-7.4h2.3v13.8h-2.2v-1.5h-0.6
		c-0.8,1.1-2.3,1.8-4.1,1.8c-3.4,0-5.2-2.1-5.2-5.4v-8.7H761.8z"/>
	<path class="st0" d="M778.5,58.7v19.8h-2.3V58.7H778.5z"/>
	<path class="st0" d="M794.9,71.7h-10.5c0.1,3.3,1.6,5.2,4.4,5.2c1.9,0,3.1-0.8,3.5-2.1h2.3c-0.4,2.3-2.4,4.1-5.8,4.1
		c-4.3,0-6.7-3.1-6.7-7.4s2.5-7.1,6.6-7.1c4.1,0,6.1,3,6.1,6.4V71.7z M784.6,69.7h7.9c-0.1-1.7-1.5-3.2-3.8-3.2
		C786.2,66.5,784.9,68,784.6,69.7z"/>
	<path class="st0" d="M806.4,67h-1.1c-2.7,0-4.4,1.7-4.4,4.7v6.9h-2.3V64.8h2.2v1.6h0.6c0.7-0.8,2-1.6,4-1.6h1V67z"/>
</g>
<g>
	<path class="st0" d="M1079.2,110v6.3h9v2.2h-9v8.7h-2.5v-19.5h13.6v2.2H1079.2z"/>
	<path class="st0" d="M1093.8,110v-2.5h2.5v2.5H1093.8z M1096.2,127.3h-2.3v-13.8h2.3V127.3z"/>
	<path class="st0" d="M1110.7,127.3V119c0-2.5-1.2-3.8-3.5-3.8c-2.5,0-4.1,2.2-4.1,4.6v7.4h-2.3v-13.8h2.2v1.5h0.6
		c0.8-1.1,2.3-1.8,4.1-1.8c3.4,0,5.2,2.1,5.2,5.4v8.7H1110.7z"/>
	<path class="st0" d="M1117.2,110v-2.5h2.5v2.5H1117.2z M1119.6,127.3h-2.3v-13.8h2.3V127.3z"/>
	<path class="st0" d="M1129.3,118.9l1.6,0.2c2.4,0.4,3.9,1.6,3.9,4.1c0,2.3-1.9,4.3-5.6,4.3c-3.9,0-5.8-1.7-6.1-4.3h2.3
		c0.2,1.6,1.6,2.3,3.7,2.3c2.1,0,3.4-0.7,3.4-2.2c0-1.2-0.8-1.9-2.5-2.2l-3.1-0.5c-2-0.4-3.3-1.4-3.3-3.5c0-2.3,1.7-4.1,5.4-4.1
		c3.2,0,5.1,1.5,5.4,3.9h-2.3c-0.2-1.3-1.5-1.9-3.2-1.9c-1.8,0-3,0.7-3,1.8c0,1.1,0.7,1.5,2.1,1.7L1129.3,118.9z"/>
	<path class="st0" d="M1148.1,127.3V119c0-2.5-1.2-3.8-3.5-3.8c-2.5,0-4.1,2.2-4.1,4.6v7.4h-2.3v-19.8h2.3v7.6h0.6
		c0.7-1.1,2.2-1.8,4.1-1.8c3.4,0,5.2,2.1,5.2,5.4v8.7H1148.1z"/>
	<path class="st0" d="M1166.6,120.4h-10.5c0.1,3.3,1.6,5.2,4.4,5.2c1.9,0,3.1-0.8,3.5-2.1h2.3c-0.4,2.3-2.4,4.1-5.8,4.1
		c-4.3,0-6.7-3.1-6.7-7.4s2.5-7.1,6.6-7.1c4.1,0,6.1,3,6.1,6.4V120.4z M1156.2,118.4h7.9c-0.1-1.7-1.5-3.2-3.8-3.2
		C1157.9,115.2,1156.5,116.7,1156.2,118.4z"/>
	<path class="st0" d="M1182.5,107.4v19.8h-2.2v-1.5h-0.6c-0.8,1-2.1,1.8-4.3,1.8c-3.8,0-6-3.2-6-7.2c0-4.1,2.2-7.2,6-7.2
		c2.2,0,3.4,0.8,4.2,1.8h0.6v-7.6H1182.5z M1180.2,120.4c0-2.7-1.3-5.2-4.3-5.2c-2.8,0-4.2,2.2-4.2,5.2s1.5,5.2,4.2,5.2
		C1178.9,125.6,1180.2,123.1,1180.2,120.4z"/>
	<path class="st0" d="M1094.8,151.4c0,4.1-2.5,7.2-6.8,7.2c-4.3,0-6.8-3.2-6.8-7.2c0-4.1,2.5-7.2,6.8-7.2
		C1092.3,144.2,1094.8,147.3,1094.8,151.4z M1092.5,151.4c0-2.7-1.4-5.2-4.4-5.2c-3.1,0-4.4,2.5-4.4,5.2s1.4,5.2,4.4,5.2
		C1091.1,156.6,1092.5,154.1,1092.5,151.4z"/>
	<path class="st0" d="M1106.3,146.7h-1.1c-2.7,0-4.4,1.7-4.4,4.7v6.9h-2.3v-13.8h2.2v1.6h0.6c0.7-0.8,2-1.6,4-1.6h1V146.7z"/>
	<path class="st0" d="M1128.8,151.4h-10.5c0.1,3.3,1.6,5.2,4.4,5.2c1.9,0,3.1-0.8,3.5-2.1h2.3c-0.4,2.3-2.4,4.1-5.8,4.1
		c-4.3,0-6.7-3.1-6.7-7.4s2.5-7.1,6.6-7.1c4.1,0,6.1,3,6.1,6.4V151.4z M1118.5,149.4h7.9c-0.1-1.7-1.5-3.2-3.8-3.2
		C1120.1,146.2,1118.8,147.7,1118.5,149.4z"/>
	<path class="st0" d="M1140.3,146.7h-1.1c-2.7,0-4.4,1.7-4.4,4.7v6.9h-2.3v-13.8h2.2v1.6h0.6c0.7-0.8,2-1.6,4-1.6h1V146.7z"/>
	<path class="st0" d="M1151.1,146.7h-1.1c-2.7,0-4.4,1.7-4.4,4.7v6.9h-2.3v-13.8h2.2v1.6h0.6c0.7-0.8,2-1.6,4-1.6h1V146.7z"/>
	<path class="st0" d="M1166.9,151.4c0,4.1-2.5,7.2-6.8,7.2c-4.3,0-6.8-3.2-6.8-7.2c0-4.1,2.5-7.2,6.8-7.2
		C1164.4,144.2,1166.9,147.3,1166.9,151.4z M1164.5,151.4c0-2.7-1.4-5.2-4.4-5.2c-3.1,0-4.4,2.5-4.4,5.2s1.4,5.2,4.4,5.2
		C1163.1,156.6,1164.5,154.1,1164.5,151.4z"/>
	<path class="st0" d="M1178.3,146.7h-1.1c-2.7,0-4.4,1.7-4.4,4.7v6.9h-2.3v-13.8h2.2v1.6h0.6c0.7-0.8,2-1.6,4-1.6h1V146.7z"/>
</g>
<g>
	<path class="st0" d="M1312.4,145.4c6,0,9,3.9,9,9.7c0,5.8-3,9.7-9,9.7h-7.3v-19.5H1312.4z M1312.4,162.7c4.7,0,6.5-3.4,6.5-7.5
		c0-4.1-1.8-7.5-6.5-7.5h-4.8v15H1312.4z"/>
	<path class="st0" d="M1337.1,158h-10.5c0.1,3.3,1.6,5.2,4.4,5.2c1.9,0,3.1-0.8,3.5-2.1h2.3c-0.4,2.3-2.4,4.1-5.8,4.1
		c-4.3,0-6.7-3.1-6.7-7.4s2.5-7.1,6.6-7.1c4.1,0,6.1,3,6.1,6.4V158z M1326.8,156.1h7.9c-0.1-1.7-1.5-3.2-3.8-3.2
		C1328.4,152.8,1327.1,154.3,1326.8,156.1z"/>
	<path class="st0" d="M1349.4,163.5h-0.6c-0.8,1.1-2.3,1.8-4.3,1.8c-3.2,0-4.9-2.1-4.9-4.5c0-2.2,1.4-4.6,5.3-4.6h4.5v-0.5
		c0-1.7-1-2.9-3.4-2.9c-2,0-3.1,0.8-3.2,2h-2.3c0.2-2.5,2.4-4,5.5-4c3.5,0,5.7,1.7,5.7,4.7v9.4h-2.2V163.5z M1349.4,159.3v-1.3h-4.1
		c-2.3,0-3.3,1-3.3,2.6c0,1.6,1.1,2.5,3.2,2.5C1347.4,163.2,1349.4,161.5,1349.4,159.3z"/>
	<path class="st0" d="M1368.2,145.1v19.8h-2.2v-1.5h-0.6c-0.8,1-2.1,1.8-4.3,1.8c-3.8,0-6-3.2-6-7.2c0-4.1,2.2-7.2,6-7.2
		c2.2,0,3.4,0.8,4.2,1.8h0.6v-7.6H1368.2z M1365.9,158c0-2.7-1.3-5.2-4.3-5.2c-2.8,0-4.2,2.2-4.2,5.2s1.5,5.2,4.2,5.2
		C1364.6,163.2,1365.9,160.7,1365.9,158z"/>
	<path class="st0" d="M1247.9,199.7h-2.2c-2.4-2.8-4.3-6.9-4.3-12.4c0-5.4,1.9-9.4,4.1-12.2h2.2c-2.2,3-4.2,6.8-4.2,12.2
		C1243.5,192.9,1245.7,196.8,1247.9,199.7z"/>
	<path class="st0" d="M1263.8,178.6h-6.4v17.3h-2.5v-17.3h-6.4v-2.2h15.3V178.6z"/>
	<path class="st0" d="M1280.8,193.7v2.2h-14v-19.5h13.6v2.2h-11.1v6h8.9v2.2h-8.9v6.7H1280.8z"/>
	<path class="st0" d="M1293.2,176.4c4.1,0,6.4,2.1,6.4,5.7c0,2.4-1,4.1-3,5l3.1,8.8h-2.5l-2.9-8.2c-0.5,0.1-1.1,0.1-1.6,0.1h-5.7
		v8.2h-2.5v-19.5H1293.2z M1292.9,185.6c3.1,0,4.3-1.3,4.3-3.5c0-2.2-1.1-3.5-4.3-3.5h-5.8v7H1292.9z"/>
	<path class="st0" d="M1303.9,176.4h4.1l4.9,9.1h0.6l4.8-9.1h4.1v19.5h-2.4v-16.7h-0.6l-5,9.2h-2.6l-5-9.2h-0.6v16.7h-2.4V176.4z"/>
	<path class="st0" d="M1330.1,176.4v19.5h-2.5v-19.5H1330.1z"/>
	<path class="st0" d="M1351.1,176.4v19.5h-3.9l-9.1-16.3h-0.6v16.3h-2.4v-19.5h3.9l9.1,16.3h0.6v-16.3H1351.1z"/>
	<path class="st0" d="M1367.2,189.9h-8.5l-2,6h-2.5l6.7-19.5h4.1l6.8,19.5h-2.6L1367.2,189.9z M1359.4,187.7h7l-3-8.8h-1.1
		L1359.4,187.7z"/>
	<path class="st0" d="M1386.8,178.6h-6.4v17.3h-2.5v-17.3h-6.4v-2.2h15.3V178.6z"/>
	<path class="st0" d="M1403.7,193.7v2.2h-14v-19.5h13.6v2.2h-11.1v6h8.9v2.2h-8.9v6.7H1403.7z"/>
	<path class="st0" d="M1414.8,176.4c6,0,9,3.9,9,9.7c0,5.8-3,9.7-9,9.7h-7.3v-19.5H1414.8z M1414.8,193.7c4.7,0,6.5-3.4,6.5-7.5
		c0-4.1-1.8-7.5-6.5-7.5h-4.8v15H1414.8z"/>
	<path class="st0" d="M1425.4,175.2h2.2c2.2,2.8,4.1,6.8,4.1,12.2c0,5.4-2,9.5-4.3,12.4h-2.2c2.2-3,4.4-6.9,4.4-12.4
		C1429.6,182,1427.6,178.2,1425.4,175.2z"/>
</g>
<g>
	<path class="st5" d="M906,146.4c4.1,0,6.4,2.1,6.4,5.7c0,2.4-1,4.1-3,5l3.1,8.8h-2.5l-2.9-8.2c-0.5,0.1-1.1,0.1-1.6,0.1h-5.7v8.2
		h-2.5v-19.5H906z M905.7,155.6c3.1,0,4.3-1.3,4.3-3.5c0-2.2-1.1-3.5-4.3-3.5h-5.8v7H905.7z"/>
	<path class="st5" d="M918.6,152.1v8.2c0,2.5,1.2,3.8,3.5,3.8c2.4,0,4.1-2.1,4.1-4.6v-7.4h2.3v13.8h-2.2v-1.5h-0.6
		c-0.8,1.1-2.3,1.8-4.1,1.8c-3.4,0-5.2-2.1-5.2-5.4v-8.7H918.6z"/>
	<path class="st5" d="M942.9,165.9v-8.2c0-2.5-1.2-3.8-3.5-3.8c-2.5,0-4.1,2.2-4.1,4.6v7.4H933v-13.8h2.2v1.5h0.6
		c0.8-1.1,2.3-1.8,4.1-1.8c3.4,0,5.2,2.1,5.2,5.4v8.7H942.9z"/>
	<path class="st5" d="M959.4,165.9v-8.2c0-2.5-1.2-3.8-3.5-3.8c-2.5,0-4.1,2.2-4.1,4.6v7.4h-2.3v-13.8h2.2v1.5h0.6
		c0.8-1.1,2.3-1.8,4.1-1.8c3.4,0,5.2,2.1,5.2,5.4v8.7H959.4z"/>
	<path class="st5" d="M965.9,148.6v-2.5h2.5v2.5H965.9z M968.3,165.9H966v-13.8h2.3V165.9z"/>
	<path class="st5" d="M982.8,165.9v-8.2c0-2.5-1.2-3.8-3.5-3.8c-2.5,0-4.1,2.2-4.1,4.6v7.4h-2.3v-13.8h2.2v1.5h0.6
		c0.8-1.1,2.3-1.8,4.1-1.8c3.4,0,5.2,2.1,5.2,5.4v8.7H982.8z"/>
	<path class="st5" d="M1001.6,152.1v13.1c0,3.8-2.4,6.3-6.4,6.3c-3.5,0-5.8-1.5-6.2-4.2h2.3c0.4,1.6,1.8,2.2,3.9,2.2
		c2.8,0,4.1-1.7,4.1-4.5V164h-0.6c-0.7,1-2,1.8-4.1,1.8c-3.8,0-6.1-3-6.1-7c0-4,2.3-7,6.1-7c2.2,0,3.5,0.9,4.2,1.8h0.6v-1.5H1001.6z
		 M999.4,158.8c0-2.6-1.4-5-4.3-5c-2.7,0-4.2,2-4.2,5c0,3,1.5,5,4.2,5C998,163.8,999.4,161.5,999.4,158.8z"/>
	<path class="st5" d="M872.3,200.7h-2.2c-2.4-2.8-4.3-6.9-4.3-12.4c0-5.4,1.9-9.4,4.1-12.2h2.2c-2.2,3-4.2,6.8-4.2,12.2
		C867.9,193.9,870.1,197.8,872.3,200.7z"/>
	<path class="st5" d="M883.5,177.4c4.1,0,6.4,2.1,6.4,5.7c0,2.4-1,4.1-3,5l3.1,8.8h-2.5l-2.9-8.2c-0.5,0.1-1.1,0.1-1.6,0.1h-5.7v8.2
		h-2.5v-19.5H883.5z M883.2,186.6c3.1,0,4.3-1.3,4.3-3.5c0-2.2-1.1-3.5-4.3-3.5h-5.8v7H883.2z"/>
	<path class="st5" d="M909.5,177.4v12.5c0,4.6-2.7,7.3-7.7,7.3c-5,0-7.7-2.7-7.7-7.3v-12.5h2.5v12.5c0,3.1,1.8,5.1,5.2,5.1
		s5.2-2,5.2-5.1v-12.5H909.5z"/>
	<path class="st5" d="M930.4,177.4v19.5h-3.9l-9.1-16.3h-0.6v16.3h-2.4v-19.5h3.9l9.1,16.3h0.6v-16.3H930.4z"/>
	<path class="st5" d="M951.3,177.4v19.5h-3.9l-9.1-16.3h-0.6v16.3h-2.4v-19.5h3.9l9.1,16.3h0.6v-16.3H951.3z"/>
	<path class="st5" d="M967.4,190.9h-8.5l-2,6h-2.5l6.7-19.5h4.1l6.8,19.5h-2.6L967.4,190.9z M959.6,188.7h7l-3-8.8h-1.1L959.6,188.7
		z"/>
	<path class="st5" d="M987.5,186.9c1.6,0.8,2.7,2.5,2.7,4.5c0,3.1-2.2,5.5-6.6,5.5H975v-19.5h8.5c4.1,0,6.2,2.3,6.2,4.9
		c0,1.7-0.7,3.2-2.1,4V186.9z M977.4,185.7h6c2.2,0,3.8-0.7,3.8-3.1c0-2.2-1.9-3-3.8-3h-5.9V185.7z M983.5,194.7
		c2.2,0,4.3-0.8,4.3-3.5c0-2.5-2-3.4-4.3-3.4h-6.1v6.9H983.5z"/>
	<path class="st5" d="M1007.5,194.6v2.3h-13.4v-19.5h2.5v17.2H1007.5z"/>
	<path class="st5" d="M1025.1,194.7v2.2h-14v-19.5h13.6v2.2h-11.1v6h8.9v2.2h-8.9v6.7H1025.1z"/>
	<path class="st5" d="M1026.7,176.2h2.2c2.2,2.8,4.1,6.8,4.1,12.2c0,5.4-2,9.5-4.3,12.4h-2.2c2.2-3,4.4-6.9,4.4-12.4
		C1030.9,183,1028.9,179.2,1026.7,176.2z"/>
</g>
<g>
	<path class="st0" d="M507.1,146.4c4.1,0,6.4,2.1,6.4,5.7c0,2.4-1,4.1-3,5l3.1,8.8h-2.5l-2.9-8.2c-0.5,0.1-1.1,0.1-1.6,0.1h-5.7v8.2
		h-2.5v-19.5H507.1z M506.7,155.6c3.1,0,4.3-1.3,4.3-3.5c0-2.2-1.1-3.5-4.3-3.5h-5.8v7H506.7z"/>
	<path class="st0" d="M529.5,159H519c0.1,3.3,1.6,5.2,4.4,5.2c1.9,0,3.1-0.8,3.5-2.1h2.3c-0.4,2.3-2.4,4.1-5.8,4.1
		c-4.3,0-6.7-3.1-6.7-7.4s2.5-7.1,6.6-7.1c4.1,0,6.1,3,6.1,6.4V159z M519.2,157.1h7.9c-0.1-1.7-1.5-3.2-3.8-3.2
		C520.8,153.8,519.5,155.3,519.2,157.1z"/>
	<path class="st0" d="M541.8,164.5h-0.6c-0.8,1.1-2.3,1.8-4.3,1.8c-3.2,0-4.9-2.1-4.9-4.5c0-2.2,1.4-4.6,5.3-4.6h4.5v-0.5
		c0-1.7-1-2.9-3.4-2.9c-2,0-3.1,0.8-3.2,2h-2.3c0.2-2.5,2.4-4,5.5-4c3.5,0,5.7,1.7,5.7,4.7v9.4h-2.2V164.5z M541.8,160.3v-1.3h-4.1
		c-2.3,0-3.3,1-3.3,2.6c0,1.6,1.1,2.5,3.2,2.5C539.8,164.2,541.8,162.5,541.8,160.3z"/>
	<path class="st0" d="M560.6,146.1v19.8h-2.2v-1.5h-0.6c-0.8,1-2.1,1.8-4.3,1.8c-3.8,0-6-3.2-6-7.2c0-4.1,2.2-7.2,6-7.2
		c2.2,0,3.4,0.8,4.2,1.8h0.6v-7.6H560.6z M558.3,159c0-2.7-1.3-5.2-4.3-5.2c-2.8,0-4.2,2.2-4.2,5.2s1.5,5.2,4.2,5.2
		C557,164.2,558.3,161.7,558.3,159z"/>
	<path class="st0" d="M566.4,171.4l2.8-6.7l-5.9-12.5h2.5l4.2,9.1h0.7l3.8-9.1h2.4l-8.2,19.2H566.4z"/>
	<path class="st0" d="M459.6,200.7h-2.2c-2.4-2.8-4.3-6.9-4.3-12.4c0-5.4,1.9-9.4,4.1-12.2h2.2c-2.2,3-4.2,6.8-4.2,12.2
		C455.2,193.9,457.4,197.8,459.6,200.7z"/>
	<path class="st0" d="M470.9,177.4c4.1,0,6.4,2.1,6.4,5.7c0,2.4-1,4.1-3,5l3.1,8.8h-2.5l-2.9-8.2c-0.5,0.1-1.1,0.1-1.6,0.1h-5.7v8.2
		h-2.5v-19.5H470.9z M470.5,186.6c3.1,0,4.3-1.3,4.3-3.5c0-2.2-1.1-3.5-4.3-3.5h-5.8v7H470.5z"/>
	<path class="st0" d="M496.9,177.4v12.5c0,4.6-2.7,7.3-7.7,7.3s-7.7-2.7-7.7-7.3v-12.5h2.5v12.5c0,3.1,1.8,5.1,5.2,5.1
		c3.4,0,5.2-2,5.2-5.1v-12.5H496.9z"/>
	<path class="st0" d="M517.7,177.4v19.5h-3.9l-9.1-16.3h-0.6v16.3h-2.4v-19.5h3.9l9.1,16.3h0.6v-16.3H517.7z"/>
	<path class="st0" d="M538.6,177.4v19.5h-3.9l-9.1-16.3h-0.6v16.3h-2.4v-19.5h3.9l9.1,16.3h0.6v-16.3H538.6z"/>
	<path class="st0" d="M554.7,190.9h-8.5l-2,6h-2.5l6.7-19.5h4.1l6.8,19.5h-2.6L554.7,190.9z M546.9,188.7h7l-3-8.8h-1.1L546.9,188.7
		z"/>
	<path class="st0" d="M574.9,186.9c1.6,0.8,2.7,2.5,2.7,4.5c0,3.1-2.2,5.5-6.6,5.5h-8.7v-19.5h8.5c4.1,0,6.2,2.3,6.2,4.9
		c0,1.7-0.7,3.2-2.1,4V186.9z M564.8,185.7h6c2.2,0,3.8-0.7,3.8-3.1c0-2.2-1.9-3-3.8-3h-5.9V185.7z M570.8,194.7
		c2.2,0,4.3-0.8,4.3-3.5c0-2.5-2-3.4-4.3-3.4h-6.1v6.9H570.8z"/>
	<path class="st0" d="M594.8,194.6v2.3h-13.4v-19.5h2.5v17.2H594.8z"/>
	<path class="st0" d="M612.4,194.7v2.2h-14v-19.5H612v2.2h-11.1v6h8.9v2.2h-8.9v6.7H612.4z"/>
	<path class="st0" d="M614,176.2h2.2c2.2,2.8,4.1,6.8,4.1,12.2c0,5.4-2,9.5-4.3,12.4h-2.2c2.2-3,4.4-6.9,4.4-12.4
		C618.2,183,616.2,179.2,614,176.2z"/>
</g>
<g>
	<path class="st0" d="M89.7,150.4v19.5h-2.5v-19.5H89.7z"/>
	<path class="st0" d="M104.5,169.9v-8.2c0-2.5-1.2-3.8-3.5-3.8c-2.5,0-4.1,2.2-4.1,4.6v7.4h-2.3v-13.8h2.2v1.5h0.6
		c0.8-1.1,2.3-1.8,4.1-1.8c3.4,0,5.2,2.1,5.2,5.4v8.7H104.5z"/>
	<path class="st0" d="M111.1,152.6v-2.5h2.5v2.5H111.1z M113.4,169.9h-2.3v-13.8h2.3V169.9z"/>
	<path class="st0" d="M124.6,156.1v2h-3.5v7.6c0,1.4,0.6,2.1,2.5,2.1h1v2.1h-1.1c-3,0-4.7-0.9-4.7-3.8v-7.9h-2.4v-2h2.4V152h2.3v4.1
		H124.6z"/>
	<path class="st0" d="M128.5,152.6v-2.5h2.5v2.5H128.5z M130.8,169.9h-2.3v-13.8h2.3V169.9z"/>
	<path class="st0" d="M144.1,168.5h-0.6c-0.8,1.1-2.3,1.8-4.3,1.8c-3.2,0-4.9-2.1-4.9-4.5c0-2.2,1.4-4.6,5.3-4.6h4.5v-0.5
		c0-1.7-1-2.9-3.4-2.9c-2,0-3.1,0.8-3.2,2h-2.3c0.2-2.5,2.4-4,5.5-4c3.5,0,5.7,1.7,5.7,4.7v9.4h-2.2V168.5z M144.1,164.3v-1.3h-4.1
		c-2.3,0-3.3,1-3.3,2.6c0,1.6,1.1,2.5,3.2,2.5C142.1,168.2,144.1,166.5,144.1,164.3z"/>
	<path class="st0" d="M152.9,150.1v19.8h-2.3v-19.8H152.9z"/>
	<path class="st0" d="M157.4,152.6v-2.5h2.5v2.5H157.4z M159.7,169.9h-2.3v-13.8h2.3V169.9z"/>
	<path class="st0" d="M163.4,169.9v-2.6l8.4-8.5v-0.6h-7.9v-2h10.9v2.6l-8.3,8.5v0.6h8.4v2H163.4z"/>
	<path class="st0" d="M190.3,163h-10.5c0.1,3.3,1.6,5.2,4.4,5.2c1.9,0,3.1-0.8,3.5-2.1h2.3c-0.4,2.3-2.4,4.1-5.8,4.1
		c-4.3,0-6.7-3.1-6.7-7.4s2.5-7.1,6.6-7.1c4.1,0,6.1,3,6.1,6.4V163z M179.9,161.1h7.9c-0.1-1.7-1.5-3.2-3.8-3.2
		C181.6,157.8,180.2,159.3,179.9,161.1z"/>
	<path class="st0" d="M206.2,150.1v19.8h-2.2v-1.5h-0.6c-0.8,1-2.1,1.8-4.3,1.8c-3.8,0-6-3.2-6-7.2c0-4.1,2.2-7.2,6-7.2
		c2.2,0,3.4,0.8,4.2,1.8h0.6v-7.6H206.2z M203.9,163c0-2.7-1.3-5.2-4.3-5.2c-2.8,0-4.2,2.2-4.2,5.2s1.5,5.2,4.2,5.2
		C202.6,168.2,203.9,165.7,203.9,163z"/>
	<path class="st0" d="M115.1,204.7h-2.2c-2.4-2.8-4.3-6.9-4.3-12.4c0-5.4,1.9-9.4,4.1-12.2h2.2c-2.2,3-4.2,6.8-4.2,12.2
		C110.7,197.9,112.8,201.8,115.1,204.7z"/>
	<path class="st0" d="M133.6,181.4v19.5h-3.9l-9.1-16.3h-0.6v16.3h-2.4v-19.5h3.9l9.1,16.3h0.6v-16.3H133.6z"/>
	<path class="st0" d="M152.6,198.7v2.2h-14v-19.5h13.6v2.2H141v6h8.9v2.2H141v6.7H152.6z"/>
	<path class="st0" d="M167.6,188.1l3.5,10.1h0.6l2.1-16.7h2.4l-2.5,19.5h-3.9l-3.6-10.4h-0.6l-3.7,10.4H158l-2.5-19.5h2.4l2.1,16.7
		h0.6l3.5-10.1H167.6z"/>
	<path class="st0" d="M178.1,180.2h2.2c2.2,2.8,4.1,6.8,4.1,12.2c0,5.4-2,9.5-4.3,12.4h-2.2c2.2-3,4.4-6.9,4.4-12.4
		C182.3,187,180.3,183.2,178.1,180.2z"/>
</g>
<g>
	<path class="st0" d="M304.7,146c2.9,0.7,4.9,2.2,4.9,5.5c0,3.1-2.4,5.8-7.4,5.8c-4.6,0-7.5-2.4-7.8-5.8h2.5
		c0.4,2.6,2.8,3.5,5.5,3.5c2.7,0,4.8-1.3,4.8-3.5c0-2.1-1.4-2.9-3.3-3.3c-1-0.2-2.9-0.6-3.8-0.8c-2.8-0.6-4.7-2.1-4.7-4.9
		c0-3,2.5-5.4,6.8-5.4c4,0,6.6,2.1,7.1,5.3h-2.5c-0.5-2-1.8-3-4.6-3c-2.3,0-4.3,1.1-4.3,3.1c0,1.9,1.7,2.5,3.3,2.8
		C301.8,145.4,303.6,145.8,304.7,146z"/>
	<path class="st0" d="M320,143.1v2h-3.5v7.6c0,1.4,0.6,2.1,2.5,2.1h1v2.1H319c-3,0-4.7-0.9-4.7-3.8v-7.9h-2.4v-2h2.4V139h2.3v4.1
		H320z"/>
	<path class="st0" d="M332.6,155.5H332c-0.8,1.1-2.3,1.8-4.3,1.8c-3.2,0-4.9-2.1-4.9-4.5c0-2.2,1.4-4.6,5.3-4.6h4.5v-0.5
		c0-1.7-1-2.9-3.4-2.9c-2,0-3.1,0.8-3.2,2h-2.3c0.2-2.5,2.4-4,5.5-4c3.5,0,5.7,1.7,5.7,4.7v9.4h-2.2V155.5z M332.5,151.3v-1.3h-4.1
		c-2.3,0-3.3,1-3.3,2.6c0,1.6,1.1,2.5,3.2,2.5C330.6,155.2,332.5,153.5,332.5,151.3z"/>
	<path class="st0" d="M346.9,145.3h-1.1c-2.7,0-4.4,1.7-4.4,4.7v6.9h-2.3v-13.8h2.2v1.6h0.6c0.7-0.8,2-1.6,4-1.6h1V145.3z"/>
	<path class="st0" d="M357.5,143.1v2H354v7.6c0,1.4,0.6,2.1,2.5,2.1h1v2.1h-1.1c-3,0-4.7-0.9-4.7-3.8v-7.9h-2.4v-2h2.4V139h2.3v4.1
		H357.5z"/>
	<path class="st0" d="M373,150h-10.5c0.1,3.3,1.6,5.2,4.4,5.2c1.9,0,3.1-0.8,3.5-2.1h2.3c-0.4,2.3-2.4,4.1-5.8,4.1
		c-4.3,0-6.7-3.1-6.7-7.4s2.5-7.1,6.6-7.1c4.1,0,6.1,3,6.1,6.4V150z M362.6,148.1h7.9c-0.1-1.7-1.5-3.2-3.8-3.2
		C364.3,144.8,362.9,146.3,362.6,148.1z"/>
	<path class="st0" d="M388.9,137.1v19.8h-2.2v-1.5H386c-0.8,1-2.1,1.8-4.3,1.8c-3.8,0-6-3.2-6-7.2c0-4.1,2.2-7.2,6-7.2
		c2.2,0,3.4,0.8,4.2,1.8h0.6v-7.6H388.9z M386.6,150c0-2.7-1.3-5.2-4.3-5.2c-2.8,0-4.2,2.2-4.2,5.2s1.5,5.2,4.2,5.2
		C385.3,155.2,386.6,152.7,386.6,150z"/>
</g>
<g>
	<path class="st0" d="M717.3,292.4l2.8-6.7l-5.9-12.5h2.5l4.2,9.1h0.7l3.8-9.1h2.4l-8.2,19.2H717.3z"/>
	<path class="st0" d="M730.6,269.6v-2.5h2.5v2.5H730.6z M733,286.9h-2.3v-13.8h2.3V286.9z"/>
	<path class="st0" d="M749.5,280H739c0.1,3.3,1.6,5.2,4.4,5.2c1.9,0,3.1-0.8,3.5-2.1h2.3c-0.4,2.3-2.4,4.1-5.8,4.1
		c-4.3,0-6.7-3.1-6.7-7.4s2.5-7.1,6.6-7.1c4.1,0,6.1,3,6.1,6.4V280z M739.2,278.1h7.9c-0.1-1.7-1.5-3.2-3.8-3.2
		C740.8,274.8,739.5,276.3,739.2,278.1z"/>
	<path class="st0" d="M755.4,267.1v19.8h-2.3v-19.8H755.4z"/>
	<path class="st0" d="M772.2,267.1v19.8H770v-1.5h-0.6c-0.8,1-2.1,1.8-4.3,1.8c-3.8,0-6-3.2-6-7.2c0-4.1,2.2-7.2,6-7.2
		c2.2,0,3.4,0.8,4.2,1.8h0.6v-7.6H772.2z M769.9,280c0-2.7-1.3-5.2-4.3-5.2c-2.8,0-4.2,2.2-4.2,5.2s1.5,5.2,4.2,5.2
		C768.6,285.2,769.9,282.7,769.9,280z"/>
</g>
<g>
	<path class="st5" d="M695.7,374.7l3.5,10.1h0.6l2.1-16.7h2.4l-2.5,19.5h-3.9l-3.6-10.4h-0.6l-3.7,10.4h-3.9l-2.5-19.5h2.4l2.1,16.7
		h0.6l3.5-10.1H695.7z"/>
	<path class="st5" d="M716.4,386.1h-0.6c-0.8,1.1-2.3,1.8-4.3,1.8c-3.2,0-4.9-2.1-4.9-4.5c0-2.2,1.4-4.6,5.3-4.6h4.5v-0.5
		c0-1.7-1-2.9-3.4-2.9c-2,0-3.1,0.8-3.2,2h-2.3c0.2-2.5,2.4-4,5.5-4c3.5,0,5.7,1.7,5.7,4.7v9.4h-2.2V386.1z M716.3,382v-1.3h-4.1
		c-2.3,0-3.3,1-3.3,2.6c0,1.6,1.1,2.5,3.2,2.5C714.3,385.9,716.3,384.2,716.3,382z"/>
	<path class="st5" d="M722.8,370.2v-2.5h2.5v2.5H722.8z M725.2,387.6h-2.3v-13.8h2.3V387.6z"/>
	<path class="st5" d="M736.4,373.8v2h-3.5v7.6c0,1.4,0.6,2.1,2.5,2.1h1v2.1h-1.1c-3,0-4.7-0.9-4.7-3.8v-7.9h-2.4v-2h2.4v-4.1h2.3
		v4.1H736.4z"/>
	<path class="st5" d="M740.2,370.2v-2.5h2.5v2.5H740.2z M742.6,387.6h-2.3v-13.8h2.3V387.6z"/>
	<path class="st5" d="M757,387.6v-8.2c0-2.5-1.2-3.8-3.5-3.8c-2.5,0-4.1,2.2-4.1,4.6v7.4h-2.3v-13.8h2.2v1.5h0.6
		c0.8-1.1,2.3-1.8,4.1-1.8c3.4,0,5.2,2.1,5.2,5.4v8.7H757z"/>
	<path class="st5" d="M775.9,373.8v13.1c0,3.8-2.4,6.3-6.4,6.3c-3.5,0-5.8-1.5-6.2-4.2h2.3c0.4,1.6,1.8,2.2,3.9,2.2
		c2.8,0,4.1-1.7,4.1-4.5v-1.1H773c-0.7,1-2,1.8-4.1,1.8c-3.8,0-6.1-3-6.1-7c0-4,2.3-7,6.1-7c2.2,0,3.5,0.9,4.2,1.8h0.6v-1.5H775.9z
		 M773.6,380.5c0-2.6-1.4-5-4.3-5c-2.7,0-4.2,2-4.2,5c0,3,1.5,5,4.2,5C772.2,385.5,773.6,383.1,773.6,380.5z"/>
	<path class="st5" d="M664.1,422.4h-2.2c-2.4-2.8-4.3-6.9-4.3-12.4c0-5.4,1.9-9.4,4.1-12.2h2.2c-2.2,3-4.2,6.8-4.2,12.2
		C659.7,415.5,661.9,419.4,664.1,422.4z"/>
	<path class="st5" d="M679.3,408.6c1.6,0.8,2.7,2.5,2.7,4.5c0,3.1-2.2,5.5-6.6,5.5h-8.7v-19.5h8.5c4.1,0,6.2,2.3,6.2,4.9
		c0,1.7-0.7,3.2-2.1,4V408.6z M669.2,407.4h6c2.2,0,3.8-0.7,3.8-3.1c0-2.2-1.9-3-3.8-3h-5.9V407.4z M675.3,416.4
		c2.2,0,4.3-0.8,4.3-3.5c0-2.5-2-3.4-4.3-3.4h-6.1v6.9H675.3z"/>
	<path class="st5" d="M699.2,416.2v2.3h-13.4v-19.5h2.5v17.2H699.2z"/>
	<path class="st5" d="M719.2,408.8c0,5.6-3.2,10.1-9.1,10.1c-5.9,0-9.1-4.5-9.1-10.1s3.1-10.1,9.1-10.1
		C716,398.7,719.2,403.2,719.2,408.8z M716.7,408.8c0-4.1-2-7.9-6.6-7.9c-4.6,0-6.6,3.8-6.6,7.9c0,4.1,2,7.9,6.6,7.9
		C714.7,416.7,716.7,412.9,716.7,408.8z"/>
	<path class="st5" d="M738.9,413c-0.8,3.5-3.4,5.9-7.7,5.9c-5.8,0-9-4.3-9-10.1c0-5.8,3.2-10.1,9-10.1c4,0,6.7,2.1,7.5,5.5h-2.6
		c-0.7-2.1-2.2-3.2-4.9-3.2c-4.5,0-6.5,3.7-6.5,7.9c0,4.1,2,7.9,6.5,7.9c2.7,0,4.5-1.4,5.1-3.7H738.9z"/>
	<path class="st5" d="M742.7,399.1h2.5v9.7l10-9.7h3l-6.1,6.1l6.8,13.4h-2.6l-5.8-11.2h-0.6l-4.7,4.5v6.7h-2.5V399.1z"/>
	<path class="st5" d="M776.3,416.3v2.2h-14v-19.5h13.6v2.2h-11.1v6h8.9v2.2h-8.9v6.7H776.3z"/>
	<path class="st5" d="M787.4,399.1c6,0,9,3.9,9,9.7c0,5.8-3,9.7-9,9.7h-7.3v-19.5H787.4z M787.4,416.3c4.7,0,6.5-3.4,6.5-7.5
		c0-4.1-1.8-7.5-6.5-7.5h-4.8v15H787.4z"/>
	<path class="st5" d="M799,418.6v-3.2h2.8v3.7l-1.5,2.6h-1.5l1.5-2.6v-0.5H799z"/>
	<path class="st5" d="M682.2,436.7l3.5,10.1h0.6l2.1-16.7h2.4l-2.5,19.5h-3.9l-3.6-10.4h-0.6l-3.7,10.4h-3.9l-2.5-19.5h2.4l2.1,16.7
		h0.6l3.5-10.1H682.2z"/>
	<path class="st5" d="M705.5,443.6H697l-2,6h-2.5l6.7-19.5h4.1l6.8,19.5h-2.6L705.5,443.6z M697.7,441.4h7l-3-8.8h-1.1L697.7,441.4z
		"/>
	<path class="st5" d="M715.7,430.1v19.5h-2.5v-19.5H715.7z"/>
	<path class="st5" d="M734.1,432.3h-6.4v17.3h-2.5v-17.3h-6.4v-2.2h15.3V432.3z"/>
	<path class="st5" d="M739.8,430.1v19.5h-2.5v-19.5H739.8z"/>
	<path class="st5" d="M760.8,430.1v19.5h-3.9l-9.1-16.3h-0.6v16.3h-2.4v-19.5h3.9l9.1,16.3h0.6v-16.3H760.8z"/>
	<path class="st5" d="M782,439.2v2c0,4.5-2.3,8.7-8.2,8.7c-5.9,0-9-4.4-9-10.1c0-5.7,3.2-10.1,9.1-10.1c4.1,0,6.8,2.1,7.5,5.4h-2.6
		c-0.6-2-2.1-3.2-5-3.2c-4.6,0-6.6,3.7-6.6,7.9c0,4.1,2,7.9,6.6,7.9c4,0,5.6-2.8,5.6-5.9v-0.4h-6v-2.2H782z"/>
	<path class="st5" d="M783.9,428.9h2.2c2.2,2.8,4.1,6.8,4.1,12.2c0,5.4-2,9.5-4.3,12.4h-2.2c2.2-3,4.4-6.9,4.4-12.4
		C788.1,435.7,786.1,431.8,783.9,428.9z"/>
</g>
</svg>
